<svg width="483" height="481" viewBox="0 0 483 481" fill="none" xmlns="http://www.w3.org/2000/svg">
<path d="M21.8045 187.63C21.8045 187.63 2.55221 269.915 56.1838 341.599C109.815 413.282 203.327 441.143 278.473 465.715C353.631 490.286 424.022 461.923 450.433 398.76C476.844 335.61 423.508 301.58 411.735 219.102C399.976 136.611 409.358 112.862 354.505 50.0587C299.653 -12.7446 187.069 -11.2539 110.959 53.2329C34.8494 117.707 21.8045 187.63 21.8045 187.63Z" fill="#C5C5C2"/>
<path opacity="0.7" d="M21.8045 187.63C21.8045 187.63 2.55221 269.915 56.1838 341.599C109.815 413.282 203.327 441.143 278.473 465.715C353.631 490.286 424.022 461.923 450.433 398.76C476.844 335.61 423.508 301.58 411.735 219.102C399.976 136.611 409.358 112.862 354.505 50.0587C299.653 -12.7446 187.069 -11.2539 110.959 53.2329C34.8494 117.707 21.8045 187.63 21.8045 187.63Z" fill="#C5C5C2"/>
<path d="M446.037 250.035C446.037 250.035 446.037 244.663 438.519 237.132C431 229.614 426.155 225.309 426.155 225.309C426.155 225.309 422.39 237.672 429.381 245.19C436.373 252.708 446.037 259.699 446.037 259.699V250.035Z" fill="#FFCB05"/>
<path d="M435.113 283.601C435.113 283.601 435.113 278.23 427.595 270.699C420.076 263.181 415.231 258.876 415.231 258.876C415.231 258.876 411.465 271.239 418.457 278.757C425.448 286.274 435.113 293.266 435.113 293.266V283.601Z" fill="#FFCB05"/>
<path d="M445.562 259.185C445.562 259.185 446.127 253.839 454.404 247.156C462.681 240.473 467.95 236.708 467.95 236.708C467.95 236.708 470.379 249.392 462.642 256.139C454.905 262.886 444.547 268.81 444.547 268.81L445.562 259.185Z" fill="#FFCB05"/>
<path d="M432.363 298.83C432.363 298.83 433.494 293.574 442.426 287.791C451.358 282.008 456.987 278.821 456.987 278.821C456.987 278.821 458.08 291.698 449.662 297.583C441.256 303.482 430.332 308.276 430.332 308.276L432.363 298.83Z" fill="#FFCB05"/>
<path d="M434.843 342.048C434.843 342.048 434.843 336.676 442.362 329.146C449.88 321.628 454.725 317.323 454.725 317.323C454.725 317.323 458.491 329.686 451.5 337.203C444.508 344.721 434.843 351.712 434.843 351.712V342.048Z" fill="#FFCB05"/>
<path d="M434.728 352.586C434.728 352.586 435.486 347.266 429.111 338.746C422.737 330.225 418.56 325.291 418.56 325.291C418.56 325.291 413.085 336.985 418.92 345.428C424.767 353.871 433.352 362.16 433.352 362.16L434.728 352.586Z" fill="#FFCB05"/>
<path d="M427.299 383.853C427.299 383.853 427.299 378.481 434.818 370.95C442.336 363.433 447.181 359.127 447.181 359.127C447.181 359.127 450.947 371.49 443.955 379.008C436.964 386.526 427.299 393.517 427.299 393.517V383.853Z" fill="#FFCB05"/>
<path d="M432.324 412.203C432.324 412.203 430.962 406.998 436.334 397.822C441.706 388.634 445.292 383.249 445.292 383.249C445.292 383.249 452.065 394.25 447.207 403.297C442.349 412.344 434.766 421.558 434.766 421.558L432.324 412.203Z" fill="#FFCB05"/>
<path d="M446.719 248.66C446.282 254.404 445.626 260.341 444.662 265.34C441.693 280.71 434.252 290.618 431.283 304.498C428.314 318.377 436.848 336.253 434.561 354.09C432.273 371.914 425.333 381.835 427.312 393.723C429.291 405.623 439.701 437.841 439.701 437.841" stroke="#263238" stroke-width="0.5" stroke-miterlimit="10" stroke-linecap="round" stroke-linejoin="round"/>
<path d="M445.485 262.757L453.594 256.537" stroke="#263238" stroke-width="0.5" stroke-miterlimit="10" stroke-linecap="round" stroke-linejoin="round"/>
<path d="M445.87 255.599L442.464 249.559" stroke="#263238" stroke-width="0.5" stroke-miterlimit="10" stroke-linecap="round" stroke-linejoin="round"/>
<path d="M431.72 303.868C431.72 303.868 438.506 298.779 445.485 293.69" stroke="#263238" stroke-width="0.5" stroke-miterlimit="10" stroke-linecap="round" stroke-linejoin="round"/>
<path d="M435.113 293.266C435.113 293.266 429.458 282.175 423.045 274.824" stroke="#263238" stroke-width="0.5" stroke-miterlimit="10" stroke-linecap="round" stroke-linejoin="round"/>
<path d="M435.113 349.695C435.113 349.695 440.395 339.324 449.636 330.277" stroke="#263238" stroke-width="0.5" stroke-miterlimit="10" stroke-linecap="round" stroke-linejoin="round"/>
<path d="M433.789 357.226C433.789 357.226 430.397 349.117 426.438 343.27C422.48 337.422 421.914 336.664 421.914 336.664" stroke="#263238" stroke-width="0.5" stroke-miterlimit="10" stroke-linecap="round" stroke-linejoin="round"/>
<path d="M427.299 393.736C427.299 393.736 430.024 386.835 433.417 381.373C436.81 375.898 441.333 371.002 441.333 371.002" stroke="#263238" stroke-width="0.5" stroke-miterlimit="10" stroke-linecap="round" stroke-linejoin="round"/>
<path d="M434.779 421.558C434.779 421.558 433.982 415.12 436.81 409.658C439.637 404.184 442.85 397.025 444.161 394.198" stroke="#263238" stroke-width="0.5" stroke-miterlimit="10" stroke-linecap="round" stroke-linejoin="round"/>
<path d="M396.763 321.834C396.763 321.834 396.184 318.467 400.078 312.928C403.985 307.389 406.543 304.176 406.543 304.176C406.543 304.176 410.244 311.514 406.684 317.002C403.124 322.476 397.817 327.912 397.817 327.912L396.763 321.834Z" fill="#FFCB05"/>
<path d="M407.25 341.689C407.25 341.689 406.672 338.322 410.566 332.783C414.473 327.244 417.03 324.031 417.03 324.031C417.03 324.031 420.732 331.369 417.172 336.857C413.612 342.331 408.304 347.767 408.304 347.767L407.25 341.689Z" fill="#FFCB05"/>
<path d="M398.048 327.514C398.048 327.514 397.11 324.224 391.198 320.934C385.286 317.644 381.572 315.845 381.572 315.845C381.572 315.845 381.417 324.07 387.008 327.45C392.599 330.842 399.732 333.426 399.732 333.426L398.048 327.514Z" fill="#FFCB05"/>
<path d="M410.63 350.942C410.63 350.942 409.358 347.767 403.124 345.107C396.891 342.447 393.023 341.059 393.023 341.059C393.023 341.059 393.742 349.245 399.654 352.034C405.566 354.823 412.943 356.647 412.943 356.647L410.63 350.942Z" fill="#FFCB05"/>
<path d="M413.766 378.314C413.766 378.314 413.188 374.947 407.648 371.04C402.109 367.134 398.613 364.962 398.613 364.962C398.613 364.962 397.598 373.122 402.79 377.08C407.983 381.039 414.82 384.367 414.82 384.367L413.766 378.314Z" fill="#FFCB05"/>
<path d="M414.987 384.92C414.987 384.92 413.933 381.668 417.005 375.628C420.076 369.601 422.158 366.042 422.158 366.042C422.158 366.042 426.862 372.788 424.112 378.713C421.362 384.637 416.876 390.767 416.876 390.767L414.987 384.92Z" fill="#FFCB05"/>
<path d="M424.433 412.1C424.433 412.1 424.819 408.707 430.127 404.492C435.435 400.277 438.802 397.912 438.802 397.912C438.802 397.912 440.28 405.995 435.319 410.249C430.358 414.503 423.726 418.217 423.726 418.217L424.433 412.1Z" fill="#FFCB05"/>
<path d="M423.032 403.708C423.032 403.708 422.454 400.341 416.915 396.434C411.375 392.527 407.88 390.355 407.88 390.355C407.88 390.355 406.864 398.516 412.057 402.474C417.249 406.432 424.086 409.761 424.086 409.761L423.032 403.708Z" fill="#FFCB05"/>
<path d="M422.955 422.034C422.955 422.034 423.251 418.628 418.881 413.449C414.511 408.27 411.684 405.289 411.684 405.289C411.684 405.289 408.638 412.922 412.661 418.075C416.683 423.229 422.441 428.176 422.441 428.176L422.955 422.034Z" fill="#FFCB05"/>
<path d="M396.184 321.037C397.084 324.597 398.138 328.247 399.295 331.279C402.829 340.596 408.574 346.007 411.941 354.386C415.308 362.765 411.902 374.909 415.27 385.832C418.637 396.769 424.073 402.23 424.112 409.902C424.163 417.575 421.13 438.907 421.13 438.907" stroke="#263238" stroke-width="0.5" stroke-miterlimit="10" stroke-linecap="round" stroke-linejoin="round"/>
<path d="M398.485 329.75L392.727 326.73" stroke="#263238" stroke-width="0.5" stroke-miterlimit="10" stroke-linecap="round" stroke-linejoin="round"/>
<path d="M397.469 325.303L398.948 321.152" stroke="#263238" stroke-width="0.5" stroke-miterlimit="10" stroke-linecap="round" stroke-linejoin="round"/>
<path d="M411.581 354.038C411.581 354.038 406.774 351.584 401.839 349.142" stroke="#263238" stroke-width="0.5" stroke-miterlimit="10" stroke-linecap="round" stroke-linejoin="round"/>
<path d="M408.304 347.754C408.304 347.754 410.643 340.185 413.869 334.877" stroke="#263238" stroke-width="0.5" stroke-miterlimit="10" stroke-linecap="round" stroke-linejoin="round"/>
<path d="M414.421 383.133C414.421 383.133 409.987 377.209 403.202 372.531" stroke="#263238" stroke-width="0.5" stroke-miterlimit="10" stroke-linecap="round" stroke-linejoin="round"/>
<path d="M416.079 387.721C416.079 387.721 417.326 382.272 419.177 378.173C421.027 374.073 421.297 373.546 421.297 373.546" stroke="#263238" stroke-width="0.5" stroke-miterlimit="10" stroke-linecap="round" stroke-linejoin="round"/>
<path d="M423.842 415.724C423.842 415.724 427.659 411.046 430.037 409.298C432.414 407.55 434.059 405.803 434.059 405.803" stroke="#263238" stroke-width="0.5" stroke-miterlimit="10" stroke-linecap="round" stroke-linejoin="round"/>
<path d="M424.112 409.902C424.112 409.902 421.657 405.88 418.932 402.809C416.208 399.75 412.841 397.167 412.841 397.167" stroke="#263238" stroke-width="0.5" stroke-miterlimit="10" stroke-linecap="round" stroke-linejoin="round"/>
<path d="M422.441 428.163C422.441 428.163 422.235 424.038 419.871 420.915C417.506 417.793 414.717 413.642 413.586 412.022" stroke="#263238" stroke-width="0.5" stroke-miterlimit="10" stroke-linecap="round" stroke-linejoin="round"/>
<path d="M451.063 475.995H409.653C407.494 475.995 405.746 474.248 405.746 472.089V435.206H454.97V472.089C454.97 474.235 453.222 475.995 451.063 475.995Z" fill="#263238"/>
<path d="M454.545 441.619H405.746C403.613 441.619 401.891 439.897 401.891 437.764C401.891 435.63 403.613 433.908 405.746 433.908H454.545C456.679 433.908 458.401 435.63 458.401 437.764C458.401 439.897 456.679 441.619 454.545 441.619Z" fill="#263238"/>
<path d="M360.918 98.5588C385.052 98.5588 404.615 78.9965 404.615 54.8651C404.615 30.7337 385.052 11.1714 360.918 11.1714C336.785 11.1714 317.221 30.7337 317.221 54.8651C317.221 78.9965 336.785 98.5588 360.918 98.5588Z" fill="#263238"/>
<path d="M375.177 89.9912C394.575 82.1234 403.921 60.0216 396.053 40.6254C388.185 21.2292 366.081 11.8835 346.684 19.7512C327.286 27.619 317.94 49.7208 325.808 69.117C333.676 88.5133 355.78 97.8589 375.177 89.9912Z" fill="white"/>
<path d="M336.332 61.8431L360.918 54.865V20.4883" stroke="#263238" stroke-width="2" stroke-miterlimit="10"/>
<path d="M148.898 250.215H100.922L38.1138 81.6597H86.0905L148.898 250.215Z" fill="#263238"/>
<path opacity="0.2" d="M148.898 250.215H100.922L38.1138 81.6597H86.0905L148.898 250.215Z" fill="white"/>
<path d="M73.277 122.822H60.939C59.3968 122.822 57.6874 121.575 57.1219 120.033L52.3539 107.246C51.7755 105.704 52.5595 104.458 54.1017 104.458H66.4397C67.9819 104.458 69.6912 105.704 70.2567 107.246L75.0248 120.033C75.5903 121.575 74.8063 122.822 73.277 122.822Z" fill="#263238"/>
<path d="M89.2649 90.18H41.2883L38.1138 81.6597H86.0904L89.2649 90.18Z" fill="#263238"/>
<path d="M57.6874 91.5806L59.0626 95.2688" stroke="#263238" stroke-miterlimit="10" stroke-linecap="round" stroke-linejoin="round"/>
<path d="M59.5253 91.5806L60.9133 95.2688" stroke="#263238" stroke-miterlimit="10" stroke-linecap="round" stroke-linejoin="round"/>
<path d="M61.376 91.5806L62.7512 95.2688" stroke="#263238" stroke-miterlimit="10" stroke-linecap="round" stroke-linejoin="round"/>
<path d="M63.2267 91.5806L64.6018 95.2688" stroke="#263238" stroke-miterlimit="10" stroke-linecap="round" stroke-linejoin="round"/>
<path d="M65.0774 91.5806L66.4525 95.2688" stroke="#263238" stroke-miterlimit="10" stroke-linecap="round" stroke-linejoin="round"/>
<path d="M66.928 91.5806L68.3033 95.2688" stroke="#263238" stroke-miterlimit="10" stroke-linecap="round" stroke-linejoin="round"/>
<path d="M68.7787 91.5806L70.1539 95.2688" stroke="#263238" stroke-miterlimit="10" stroke-linecap="round" stroke-linejoin="round"/>
<path d="M70.6166 91.5806L72.0046 95.2688" stroke="#263238" stroke-miterlimit="10" stroke-linecap="round" stroke-linejoin="round"/>
<path d="M72.4673 91.5806L73.8425 95.2688" stroke="#263238" stroke-miterlimit="10" stroke-linecap="round" stroke-linejoin="round"/>
<path d="M74.318 91.5806L75.6931 95.2688" stroke="#263238" stroke-miterlimit="10" stroke-linecap="round" stroke-linejoin="round"/>
<path d="M69.28 114.816L57.6618 107.452C57.3919 107.285 57.0834 107.246 56.8906 107.375C56.6978 107.503 56.6593 107.76 56.775 108.03L62.0957 119.506C62.2242 119.789 62.5069 120.02 62.8154 120.097C62.8797 120.11 62.9439 120.123 62.9953 120.123C63.2138 120.123 63.3809 120.02 63.4452 119.84L64.6661 116.062L69.2928 116.011C69.5756 116.011 69.7555 115.831 69.7555 115.561C69.7555 115.291 69.5627 114.996 69.28 114.816Z" fill="white"/>
<path d="M69.0486 115.329L57.4304 107.966L62.7511 119.442L64.0749 115.381L69.0486 115.329Z" fill="#263238"/>
<path d="M90.7557 115.329L79.1375 107.966L84.4582 119.442L85.782 115.381L90.7557 115.329Z" fill="white"/>
<path d="M96.7062 121.858L95.6652 119.493L94.29 121.485L96.7062 121.858Z" fill="white"/>
<path d="M124.775 197.178L123.734 194.813L122.359 196.805L124.775 197.178Z" fill="white"/>
<path d="M133.386 220.297L132.345 217.933L130.983 219.925L133.386 220.297Z" fill="white"/>
<path d="M142.228 244.008L141.174 241.643L139.812 243.635L142.228 244.008Z" fill="white"/>
<path d="M92.7607 170.487L91.7068 168.122L90.3445 170.114L92.7607 170.487Z" fill="white"/>
<path d="M102.708 197.178L101.654 194.813L100.292 196.805L102.708 197.178Z" fill="white"/>
<path d="M111.319 220.297L110.265 217.933L108.903 219.925L111.319 220.297Z" fill="white"/>
<path d="M120.148 244.008L119.107 241.643L117.732 243.635L120.148 244.008Z" fill="white"/>
<path d="M69.28 147.226L71.2977 148.524L76.8498 136.932L74.8192 135.634L69.28 147.226Z" fill="white"/>
<path d="M71.7733 135.878C68.843 133.578 68.6245 133.128 69.3442 130.532C67.8277 132.614 67.3779 132.653 64.152 130.956C67.0823 133.257 67.3008 133.706 66.5811 136.302C68.0976 134.233 68.5345 134.195 71.7733 135.878Z" fill="white"/>
<path d="M81.4637 137.125C79.6515 135.711 79.523 135.429 79.96 133.822C79.0218 135.107 78.7519 135.133 76.747 134.092C78.5591 135.506 78.6876 135.788 78.2507 137.395C79.1889 136.11 79.4588 136.084 81.4637 137.125Z" fill="white"/>
<path d="M80.9111 142.574C79.613 141.558 79.5231 141.366 79.8444 140.209C79.1761 141.121 78.9833 141.147 77.5567 140.402C78.8548 141.417 78.9447 141.61 78.6234 142.766C79.2917 141.841 79.4845 141.828 80.9111 142.574Z" fill="white"/>
<path d="M110.034 193.94L111.28 194.814L116.832 183.235L115.586 182.348L110.034 193.94Z" fill="white"/>
<path d="M105.381 144.232L95.1383 137.729L99.8293 147.869L100.986 144.283L105.381 144.232Z" fill="white"/>
<path d="M97.6702 144.823C93.9174 144.823 90.036 142.612 89.0207 139.888C88.0054 137.164 90.2416 134.953 93.9945 134.953C97.7473 134.953 101.629 137.164 102.644 139.888C103.659 142.612 101.423 144.823 97.6702 144.823ZM94.213 135.544C90.7815 135.544 88.7122 137.498 89.6119 139.888C90.4987 142.278 94.0202 144.232 97.4517 144.232C100.883 144.232 102.952 142.278 102.053 139.888C101.166 137.498 97.6445 135.544 94.213 135.544Z" fill="white"/>
<path d="M93.159 143.833C92.2337 143.833 91.2055 143.075 90.8585 142.15C90.5115 141.225 90.9871 140.466 91.9124 140.466C92.8377 140.466 93.8659 141.225 94.2129 142.15C94.5599 143.088 94.0844 143.833 93.159 143.833ZM92.1309 141.07C91.5269 141.07 91.2312 141.559 91.4497 142.163C91.6682 142.767 92.3365 143.255 92.9405 143.255C93.5446 143.255 93.8402 142.767 93.6217 142.163C93.3904 141.559 92.7221 141.07 92.1309 141.07Z" fill="white"/>
<path d="M93.3133 145.594L92.902 145.041C93.6474 144.733 94.0459 144.283 94.0973 143.705C94.1744 142.972 93.6603 142.265 93.6603 142.265L94.1358 142.06C94.1615 142.098 94.817 142.998 94.727 143.962C94.6756 144.681 94.1872 145.234 93.3133 145.594Z" fill="white"/>
<path d="M86.9001 162.313L79.7415 157.096L78.225 159.512L85.3707 164.729L86.9001 162.313Z" fill="white"/>
<path d="M75.4361 169.06L76.6056 169.908L79.2275 165.732C78.9319 165.423 78.8162 165.012 78.9961 164.742C79.2018 164.421 79.7158 164.421 80.1528 164.742C80.5898 165.063 80.7826 165.578 80.5898 165.899C80.4227 166.169 80.0371 166.207 79.6516 166.027L77.0298 170.204L78.1222 171.001L84.5868 169.189L84.9852 165.372L77.9294 160.231L74.6778 161.979L75.4361 169.06Z" fill="white"/>
<path d="M68.676 152.701H109.97" stroke="#263238" stroke-miterlimit="10" stroke-linecap="round" stroke-linejoin="round"/>
<path d="M104.585 157.096L103.068 159.512L110.214 164.729L111.743 162.313L104.585 157.096Z" fill="white"/>
<path d="M99.5208 161.966L100.279 169.047L101.449 169.896L104.07 165.719C103.775 165.411 103.659 164.999 103.839 164.729C104.045 164.408 104.559 164.408 104.996 164.729C105.433 165.051 105.626 165.565 105.433 165.886C105.266 166.156 104.88 166.194 104.495 166.015L101.873 170.191L102.965 170.988L109.43 169.176L109.828 165.359L102.772 160.219L99.5208 161.966Z" fill="white"/>
<path d="M97.7472 164.048C97.8115 163.547 97.8886 163.007 97.94 162.403C98.0428 161.182 97.6958 160.103 96.9247 159.177C95.7037 157.725 93.8659 157.25 93.7888 157.237C93.596 157.185 93.4418 157.288 93.4675 157.468C93.4803 157.648 93.6603 157.828 93.8531 157.879C93.8659 157.879 95.4339 158.278 96.4235 159.46C97.0404 160.193 97.3103 161.092 97.2203 162.12C97.1689 162.711 97.1046 163.251 97.0275 163.74C96.6805 166.31 96.4749 167.852 100.742 170.409C100.819 170.461 100.896 170.473 100.973 170.473C101.076 170.473 101.153 170.422 101.192 170.345C101.256 170.204 101.14 169.985 100.96 169.869C97.2588 167.672 97.4002 166.605 97.7472 164.048Z" fill="white"/>
<path d="M79.4716 181.23L79.7158 181.898C79.8058 182.13 80.5898 184.211 81.001 184.918L82.1963 184.623C82.0035 184.301 81.6179 183.363 81.3095 182.566H86.4117L90.6786 194.017H88.7636L89.2649 195.353H94.4314L93.9302 194.017H92.0152L87.7484 182.566H92.7092C92.9791 183.286 93.4033 184.417 93.6089 184.982H94.9583C94.637 184.121 93.8145 181.898 93.8145 181.898L93.5703 181.23H79.4716Z" fill="white"/>
<path opacity="0.44" d="M106.307 213.011C107.399 215.954 104.983 218.344 100.909 218.344C96.8348 218.344 92.6321 215.954 91.5397 213.011C90.4473 210.068 92.8635 207.678 96.9376 207.678C101.012 207.678 105.214 210.068 106.307 213.011Z" fill="white"/>
<path d="M106.307 213.011C107.399 215.954 104.983 218.344 100.909 218.344C96.8348 218.344 92.6321 215.954 91.5397 213.011C90.4473 210.068 92.8635 207.678 96.9376 207.678C101.012 207.678 105.214 210.068 106.307 213.011Z" stroke="white" stroke-miterlimit="10"/>
<path d="M121.511 213.165L126.356 204.362C126.561 204.002 127.076 203.925 127.59 204.182C128.207 204.491 128.605 205.146 128.476 205.634L125.867 215.363L121.511 213.165Z" fill="white"/>
<path d="M120.714 213.898C122.616 213.641 126.343 215.273 126.446 217.74C126.472 218.357 126.06 218.781 125.585 219.064C124.145 219.938 122.128 219.976 120.161 220.002C120.637 219.668 120.83 219.051 120.675 218.383C120.521 217.689 120.046 216.995 119.788 216.301C119.454 215.311 119.634 213.975 120.714 213.898Z" fill="white"/>
<path d="M110.625 233.225C110.059 231.992 109.353 231.234 108.864 230.822L107.399 233.148C107.965 233.624 108.787 234.485 109.43 235.873C109.995 237.106 110.509 237.993 110.882 238.559L112.309 236.271C111.859 235.616 111.242 234.549 110.625 233.225Z" fill="white"/>
<path d="M108.941 235.911C108.376 234.678 107.669 233.92 107.181 233.508L105.715 235.834C106.281 236.31 107.104 237.171 107.746 238.559C108.312 239.792 108.826 240.679 109.198 241.245L110.625 238.957C110.162 238.302 109.545 237.248 108.941 235.911Z" fill="white"/>
<path d="M111.126 233.174C111.692 234.408 112.206 235.294 112.578 235.86L114.686 232.493L109.97 229.049L109.096 230.437C109.661 230.925 110.484 231.786 111.126 233.174Z" fill="white"/>
<path d="M107.245 238.61C106.679 237.376 105.973 236.618 105.484 236.207L104.263 238.16L104.469 242.607C104.482 242.915 104.893 243.211 105.15 243.095L108.903 241.617C108.453 240.962 107.849 239.908 107.245 238.61ZM105.587 241.579L105.471 239.214L107.618 240.782L105.587 241.579Z" fill="white"/>
<path d="M125.765 235.32L124.158 237.891L132.461 243.944L134.067 241.373L134.568 241.746L138.36 235.693L129.042 228.908L125.251 234.961L125.765 235.32ZM131.908 242.466L125.61 237.878L126.754 236.04L133.052 240.628L131.908 242.466Z" fill="white"/>
<path d="M47.3801 83.9087L47.6885 84.7312L46.5319 86.1448L48.7424 87.5584L49.038 88.3809L45.568 86.1448L47.3801 83.9087Z" fill="white"/>
<path d="M44.4755 83.9087L44.784 84.7312L43.6273 86.1448L45.8379 87.5584L46.1463 88.3809L42.6634 86.1448L44.4755 83.9087Z" fill="white"/>
<path d="M241.819 182.746H142.588L112.257 98.1348H211.488L241.819 182.746Z" fill="#263238"/>
<path d="M234.776 178.133H146.315L119.287 102.749H207.748L234.776 178.133Z" fill="#FFCB05"/>
<path d="M217.952 131.214L203.327 120.444L191.773 150.439L161.815 141.983L146.315 178.133H234.776L217.952 131.214Z" fill="white"/>
<path d="M157.008 118.902C154.952 113.171 148.641 108.519 142.896 108.519C137.164 108.519 134.183 113.171 136.239 118.902C138.295 124.634 144.606 129.286 150.351 129.286C156.083 129.286 159.064 124.634 157.008 118.902Z" fill="white"/>
<path d="M252.1 168.173H152.87L122.539 83.5742H221.769L252.1 168.173Z" fill="#263238"/>
<path d="M245.057 163.56H156.597L129.569 88.188H218.029L245.057 163.56Z" fill="#FFCB05"/>
<path d="M252.537 70.2995L254.928 76.0825H254.234C253.732 75.0672 253.283 74.3347 252.884 73.8978C252.254 73.191 251.56 72.6769 250.815 72.3428C250.07 72.0087 249.183 71.8416 248.167 71.8416H244.697L251.586 90.6942C252.139 92.2106 252.653 93.1616 253.115 93.5342C253.758 94.0483 254.568 94.2925 255.519 94.2925H256.38L256.624 94.9607H246.163L245.918 94.2925H246.792C247.833 94.2925 248.463 93.9712 248.669 93.3415C248.797 92.9559 248.604 92.0692 248.103 90.6813L241.215 71.8287H238.246C237.089 71.8287 236.305 71.9187 235.881 72.0858C235.328 72.3171 234.956 72.754 234.75 73.4094C234.544 74.0649 234.596 74.9516 234.917 76.0696H234.223L232.398 70.2866H252.537V70.2995Z" fill="#010101"/>
<path d="M267.561 81.9165H275.118" stroke="#263238" stroke-width="0.5" stroke-miterlimit="10"/>
<path d="M274.874 101.926H236.883L222.81 63.4497H260.801L274.874 101.926Z" stroke="#263238" stroke-width="0.5" stroke-miterlimit="10"/>
<path d="M231.473 83.3432H228.62L227.578 80.4902H230.432L231.473 83.3432Z" fill="white" stroke="#263238" stroke-width="0.5" stroke-miterlimit="10"/>
<path d="M269.515 83.3432H266.661L265.62 80.4902H268.474L269.515 83.3432Z" fill="white" stroke="#263238" stroke-width="0.5" stroke-miterlimit="10"/>
<path d="M224.79 65.0818H221.949L220.908 62.2417H223.749L224.79 65.0818Z" fill="white" stroke="#263238" stroke-width="0.5" stroke-miterlimit="10"/>
<path d="M262.832 65.0818H259.991L258.95 62.2417H261.791L262.832 65.0818Z" fill="white" stroke="#263238" stroke-width="0.5" stroke-miterlimit="10"/>
<path d="M243.823 65.0818H240.983L239.942 62.2417H242.782L243.823 65.0818Z" fill="white" stroke="#263238" stroke-width="0.5" stroke-miterlimit="10"/>
<path d="M238.708 103.121H235.855L234.814 100.281H237.667L238.708 103.121Z" fill="white" stroke="#263238" stroke-width="0.5" stroke-miterlimit="10"/>
<path d="M276.738 103.121H273.897L272.856 100.281H275.697L276.738 103.121Z" fill="white" stroke="#263238" stroke-width="0.5" stroke-miterlimit="10"/>
<path d="M256.097 102.607L258.86 110.163" stroke="#263238" stroke-width="0.5" stroke-miterlimit="10"/>
<path d="M257.742 103.121H254.889L253.848 100.281H256.701L257.742 103.121Z" fill="white" stroke="#263238" stroke-width="0.5" stroke-miterlimit="10"/>
<path d="M260.827 111.577H257.986L256.945 108.737H259.786L260.827 111.577Z" fill="#263238"/>
<path d="M234.596 94.7036H266.52" stroke="#263238" stroke-width="0.5" stroke-miterlimit="10"/>
<path d="M276.622 81.9167C276.313 81.0942 275.401 80.4131 274.578 80.4131C273.756 80.4131 273.319 81.0813 273.627 81.9167C273.936 82.7391 274.848 83.4203 275.671 83.4203C276.493 83.4203 276.917 82.752 276.622 81.9167Z" fill="#263238"/>
<path d="M176.783 140.058L170.861 140.398L178.384 113.741L185.506 113.332L196.018 138.955L190.096 139.294L182.39 119.504L182.186 119.515L176.783 140.058ZM175.823 129.805L189.812 129.002L190.06 133.316L176.071 134.119L175.823 129.805ZM203.191 112.317L204.691 138.457L199.164 138.774L197.664 112.634L203.191 112.317Z" fill="#010101"/>
<path opacity="0.2" d="M100.485 285.954L134.915 315.46L102.104 475.996H104.327L140.814 318.416L174.268 346.457L127.05 475.803L129.993 475.302L179.679 349.4L317.89 475.302H401.993L303.624 282.51L100.485 285.954Z" fill="black"/>
<path d="M104.327 475.996H102.104L98.7754 283.216H107.656L104.327 475.996Z" fill="#263238" stroke="#263238" stroke-miterlimit="10" stroke-linecap="round" stroke-linejoin="round"/>
<path d="M295.643 475.996H293.419L290.091 283.216H298.972L295.643 475.996Z" fill="#263238" stroke="#263238" stroke-miterlimit="10" stroke-linecap="round" stroke-linejoin="round"/>
<path d="M309.189 280.235H95.3825V285.234H309.189V280.235Z" fill="white" stroke="#263238" stroke-miterlimit="10" stroke-linecap="round" stroke-linejoin="round"/>
<path d="M47.0974 383.737L43.216 391.937C43.216 391.937 47.9713 397.116 50.1304 397.116C52.2896 397.116 53.1507 394.957 55.7468 394.096C58.3429 393.234 62.6612 385.023 62.6612 385.023C62.6612 385.023 60.0651 380.705 57.4818 380.268C54.8986 379.831 51.0044 378.546 48.8452 378.109C46.6732 377.685 47.0974 383.737 47.0974 383.737Z" fill="white" stroke="#263238" stroke-miterlimit="10" stroke-linecap="round" stroke-linejoin="round"/>
<path d="M47.0974 383.737L49.6935 388.055V391.936C49.6935 391.936 52.2896 393.234 53.1507 391.936C54.0118 390.638 57.9059 386.321 57.9059 386.321L56.1838 382.439" stroke="#263238" stroke-miterlimit="10" stroke-linecap="round" stroke-linejoin="round"/>
<path d="M49.6935 391.937L44.9382 391.076" stroke="#263238" stroke-miterlimit="10" stroke-linecap="round" stroke-linejoin="round"/>
<path d="M121.524 461.422L112.797 463.916C112.797 463.916 112.039 470.907 113.465 472.526C114.892 474.145 117.09 473.374 119.442 474.749C121.806 476.124 130.816 473.952 130.816 473.952C130.816 473.952 132.345 469.159 130.957 466.923C129.569 464.687 127.975 460.921 126.87 459.006C125.778 457.104 121.524 461.422 121.524 461.422Z" fill="white" stroke="#263238" stroke-miterlimit="10" stroke-linecap="round" stroke-linejoin="round"/>
<path d="M121.524 461.422L119.994 466.216L117.077 468.786C117.077 468.786 117.809 471.588 119.364 471.382C120.907 471.176 126.716 471.241 126.716 471.241L128.489 467.372" stroke="#263238" stroke-miterlimit="10" stroke-linecap="round" stroke-linejoin="round"/>
<path d="M117.077 468.786L114.583 464.648" stroke="#263238" stroke-miterlimit="10" stroke-linecap="round" stroke-linejoin="round"/>
<path d="M33.2814 382.003C33.2814 382.003 25.9429 386.758 27.241 389.341C28.539 391.937 29.4001 393.659 30.6982 394.52C31.9962 395.381 35.8775 396.679 37.1756 395.818C38.4737 394.957 41.4939 392.798 41.9308 389.341C42.3678 385.884 43.653 385.46 42.3678 383.725C41.0569 382.003 33.2814 382.003 33.2814 382.003Z" fill="white" stroke="#263238" stroke-miterlimit="10" stroke-linecap="round" stroke-linejoin="round"/>
<path d="M27.241 389.341L32.4203 392.798L36.7386 392.361L38.4608 387.606C38.4608 387.606 38.4608 385.01 35.8647 385.01C33.2685 385.01 31.9834 386.308 31.9834 386.308L32.8445 388.904" stroke="#263238" stroke-miterlimit="10" stroke-linecap="round" stroke-linejoin="round"/>
<path d="M65.2444 375.963C65.2444 375.963 58.767 382.003 59.6281 386.321C60.4892 390.639 68.7016 394.096 68.7016 394.096L78.6363 388.48L75.616 380.705L69.1386 377.248L65.2444 375.963Z" fill="white" stroke="#263238" stroke-miterlimit="10" stroke-linecap="round" stroke-linejoin="round"/>
<path d="M59.6281 386.321L66.5425 388.917L74.3051 386.321L71.2849 379.42" stroke="#263238" stroke-miterlimit="10" stroke-linecap="round" stroke-linejoin="round"/>
<path d="M65.2445 375.963L64.8075 385.023L69.9868 386.758" stroke="#263238" stroke-miterlimit="10" stroke-linecap="round" stroke-linejoin="round"/>
<path d="M84.6767 457.143C84.6767 457.143 78.1993 463.183 79.0604 467.501C79.9215 471.819 88.1339 475.276 88.1339 475.276L98.0685 469.66L95.0483 461.885L88.5709 458.428L84.6767 457.143Z" fill="white" stroke="#263238" stroke-miterlimit="10" stroke-linecap="round" stroke-linejoin="round"/>
<path d="M79.0604 467.514L85.9748 470.097L93.7502 467.514L90.7172 460.6" stroke="#263238" stroke-miterlimit="10" stroke-linecap="round" stroke-linejoin="round"/>
<path d="M84.6767 457.143L84.2398 466.216L89.432 467.938" stroke="#263238" stroke-miterlimit="10" stroke-linecap="round" stroke-linejoin="round"/>
<path d="M41.4939 369.486C41.4939 369.486 35.0164 375.526 35.8775 379.844C36.7386 384.162 44.9511 387.619 44.9511 387.619L54.8857 382.003L51.8655 374.228L45.388 370.771L41.4939 369.486Z" fill="white" stroke="#263238" stroke-miterlimit="10" stroke-linecap="round" stroke-linejoin="round"/>
<path d="M35.8775 379.844L42.7791 382.439L50.5546 379.844L47.5343 372.93" stroke="#263238" stroke-miterlimit="10" stroke-linecap="round" stroke-linejoin="round"/>
<path d="M41.4939 369.486L41.0569 378.546L46.2363 380.281" stroke="#263238" stroke-miterlimit="10" stroke-linecap="round" stroke-linejoin="round"/>
<path d="M77.7238 475.996H26.4698L18.7843 391.037H85.4093L77.7238 475.996Z" fill="#263238" stroke="#263238" stroke-miterlimit="10" stroke-linecap="round" stroke-linejoin="round"/>
<path d="M43.653 461.898C43.653 461.898 36.3145 466.653 37.6125 469.236C38.9106 471.832 39.7717 473.554 41.0697 474.415C42.3678 475.276 46.2491 476.574 47.5472 475.713C48.8452 474.852 51.8655 472.693 52.3024 469.236C52.7394 465.779 54.0246 465.355 52.7394 463.62C51.4156 461.898 43.653 461.898 43.653 461.898Z" fill="white" stroke="#263238" stroke-miterlimit="10" stroke-linecap="round" stroke-linejoin="round"/>
<path d="M37.5997 469.236L42.7791 472.693L47.0974 472.256L48.8195 467.501C48.8195 467.501 48.8196 464.905 46.2235 464.905C43.6273 464.905 42.3421 466.203 42.3421 466.203L43.2032 468.799" stroke="#263238" stroke-miterlimit="10" stroke-linecap="round" stroke-linejoin="round"/>
<path d="M179.538 221.48C179.538 222.816 178.265 223.909 176.697 223.909C175.129 223.909 173.857 222.816 173.857 221.48C173.857 220.143 175.129 219.051 176.697 219.051C178.265 219.051 179.538 220.143 179.538 221.48Z" fill="#676464" stroke="#263238" stroke-miterlimit="10" stroke-linecap="round" stroke-linejoin="round"/>
<path d="M182.275 228.882C182.275 230.218 181.003 231.311 179.435 231.311C177.867 231.311 176.594 230.218 176.594 228.882C176.594 227.545 177.867 226.453 179.435 226.453C181.003 226.453 182.275 227.545 182.275 228.882Z" fill="#676464" stroke="#263238" stroke-miterlimit="10" stroke-linecap="round" stroke-linejoin="round"/>
<path d="M185 236.284C185 237.621 183.727 238.713 182.159 238.713C180.591 238.713 179.319 237.621 179.319 236.284C179.319 234.948 180.591 233.855 182.159 233.855C183.727 233.855 185 234.948 185 236.284Z" fill="#676464" stroke="#263238" stroke-miterlimit="10" stroke-linecap="round" stroke-linejoin="round"/>
<path d="M187.724 243.686C187.724 245.023 186.452 246.115 184.884 246.115C183.316 246.115 182.044 245.023 182.044 243.686C182.044 242.35 183.316 241.257 184.884 241.257C186.452 241.257 187.724 242.35 187.724 243.686Z" fill="#676464" stroke="#263238" stroke-miterlimit="10" stroke-linecap="round" stroke-linejoin="round"/>
<path d="M149.233 279.759H129.762L126.844 247.49H152.15L149.233 279.759Z" fill="#263238" stroke="#263238" stroke-miterlimit="10" stroke-linecap="round" stroke-linejoin="round"/>
<path d="M151.199 258.092L128.836 269.491L129.762 279.759H140.185L150.286 268.142L151.199 258.092Z" fill="#FFCB05" stroke="#263238" stroke-miterlimit="10" stroke-linecap="round" stroke-linejoin="round"/>
<path d="M154.412 243.635H124.595V250.651H154.412V243.635Z" fill="#FFCB05" stroke="#263238" stroke-miterlimit="10" stroke-linecap="round" stroke-linejoin="round"/>
<path d="M206.835 280.119H171.814C169.359 280.119 167.367 278.127 167.367 275.673C167.367 273.218 169.359 271.226 171.814 271.226H206.835C209.29 271.226 211.282 273.218 211.282 275.673C211.269 278.14 209.29 280.119 206.835 280.119Z" fill="#263238" stroke="#263238" stroke-miterlimit="10" stroke-linecap="round" stroke-linejoin="round"/>
<path d="M299.987 280.235H192.171L166.454 210.248H274.27L299.987 280.235Z" fill="#263238" stroke="#263238" stroke-miterlimit="10" stroke-linecap="round" stroke-linejoin="round"/>
<path d="M293.137 272.961H201.078L179.126 213.19H271.186L293.137 272.961Z" fill="#676464" stroke="#263238" stroke-miterlimit="10" stroke-linecap="round" stroke-linejoin="round"/>
<path d="M311.232 305.23C311.232 305.23 306.58 312.067 302.763 315.524C298.946 318.981 287.276 329.802 277.599 346.187C267.921 362.572 261.199 379.317 254.799 393.813C248.399 408.309 236.858 435.065 230.997 443.213C225.137 451.36 221.281 455.717 221.281 455.717C221.281 455.717 211.706 455.935 200.371 454.933C189.035 453.93 184.344 451.874 184.203 454.83C184.062 457.786 191.863 465.908 197.492 467.308C203.121 468.722 210.293 470.894 212.04 472.564C213.775 474.248 215.96 476.176 218.762 474.942C221.551 473.708 230.098 461.834 239.608 453.635C249.119 445.436 260.441 437.34 270.697 418.256C280.953 399.172 281.48 388.261 288.664 381.103C295.848 373.932 303.444 362.688 312.62 356.763C321.784 350.826 349.184 339.864 357.937 328.439C366.689 317.028 362.126 303.136 353.708 298.175C345.29 293.215 317.825 291.428 311.232 305.23Z" fill="#263238" stroke="#263238" stroke-miterlimit="10" stroke-linecap="round" stroke-linejoin="round"/>
<path d="M237.783 431.171C235.2 436.363 232.835 440.681 231.01 443.212C225.149 451.36 221.294 455.717 221.294 455.717C221.294 455.717 211.719 455.935 200.383 454.933C189.048 453.93 184.357 451.874 184.216 454.83C184.074 457.786 191.875 465.907 197.505 467.308C203.134 468.722 210.305 470.894 212.053 472.564C213.788 474.248 215.973 476.175 218.775 474.942C221.564 473.708 230.11 461.834 239.621 453.635C244.042 449.818 248.861 446.014 253.784 441.131C246.008 439.267 240.765 434.628 237.783 431.171Z" fill="white" stroke="#263238" stroke-miterlimit="10" stroke-linecap="round" stroke-linejoin="round"/>
<path d="M218.762 474.942C219.61 474.569 221.011 473.181 222.81 471.228C215.125 469.699 211.154 465.83 207.632 464.841C202.684 463.466 198.494 460.754 198.494 460.754L202.324 455.087C201.682 455.035 201.026 454.984 200.371 454.92C189.035 453.917 184.344 451.861 184.203 454.817C184.062 457.773 191.863 465.895 197.492 467.295C203.121 468.709 210.293 470.881 212.04 472.552C213.788 474.248 215.973 476.176 218.762 474.942Z" fill="#FFCB05" stroke="#263238" stroke-miterlimit="10" stroke-linecap="round" stroke-linejoin="round"/>
<path d="M232.077 341.419C232.077 341.419 234.12 350.967 238.67 360.066C243.219 369.164 253.231 378.713 260.505 384.174C267.78 389.636 291.209 410.558 302.814 427.161C304.267 429.243 298.715 436.26 291.903 442.403C285.078 448.545 282.123 450.82 285.76 451.951C289.397 453.082 298.046 452.632 306.683 445.358C315.332 438.085 321.013 433.304 323.737 427.393C325.1 424.437 317.594 420.8 313.045 416.932C308.495 413.064 291.659 387.593 286.428 375.77C281.197 363.947 267.998 347.112 258.218 341.2" fill="#263238"/>
<path d="M232.077 341.419C232.077 341.419 234.12 350.967 238.67 360.066C243.219 369.164 253.231 378.713 260.505 384.174C267.78 389.636 291.209 410.558 302.814 427.161C304.267 429.243 298.714 436.26 291.903 442.403C285.078 448.545 282.123 450.82 285.76 451.951C289.397 453.082 298.046 452.632 306.683 445.358C315.332 438.085 321.013 433.304 323.737 427.393C325.1 424.437 317.594 420.8 313.045 416.932C308.495 413.064 291.659 387.593 286.428 375.77C281.197 363.947 267.998 347.112 258.218 341.2" stroke="#263238" stroke-miterlimit="10" stroke-linecap="round" stroke-linejoin="round"/>
<path d="M323.75 427.38C325.113 424.424 317.607 420.787 313.057 416.919C309.227 413.668 296.722 395.149 289.731 382.298L274.244 395.985C283.87 404.891 295.617 416.855 302.814 427.162C304.267 429.243 298.715 436.26 291.903 442.403C285.079 448.546 282.123 450.82 285.76 451.951C289.397 453.082 298.046 452.632 306.683 445.359C315.332 438.072 321.013 433.304 323.75 427.38Z" fill="white" stroke="#263238" stroke-miterlimit="10" stroke-linecap="round" stroke-linejoin="round"/>
<path d="M319.072 421.353C317.851 423.177 316.258 425.658 314.42 428.755C310.101 436.028 298.265 445.358 296.684 443.765C295.797 442.878 294.897 441.349 294.293 440.167C293.522 440.912 292.725 441.67 291.916 442.403C285.091 448.545 282.135 450.82 285.773 451.951C289.41 453.082 298.059 452.632 306.696 445.358C315.345 438.085 321.026 433.304 323.75 427.393C324.573 425.593 322.131 423.55 319.072 421.353Z" fill="#FFCB05" stroke="#263238" stroke-miterlimit="10" stroke-linecap="round" stroke-linejoin="round"/>
<path d="M380.839 442.171H303.508V445.808H380.839V442.171Z" fill="white" stroke="#263238" stroke-miterlimit="10" stroke-linecap="round" stroke-linejoin="round"/>
<path d="M310.551 344.593L297.018 473.952C296.954 474.569 297.442 475.096 298.059 475.096C298.573 475.096 299.01 474.723 299.087 474.209L319.201 344.593H310.551Z" fill="white" stroke="#263238" stroke-miterlimit="10" stroke-linecap="round" stroke-linejoin="round"/>
<path d="M372.421 344.593L385.954 473.952C386.018 474.569 385.53 475.096 384.913 475.096C384.399 475.096 383.962 474.723 383.885 474.209L363.772 344.593H372.421Z" fill="white" stroke="#263238" stroke-miterlimit="10" stroke-linecap="round" stroke-linejoin="round"/>
<path d="M347.861 344.593L348.542 474.055C348.542 474.633 348.079 475.096 347.501 475.096H347.488C346.935 475.096 346.473 474.659 346.447 474.106L339.224 344.58H347.861V344.593Z" fill="white" stroke="#263238" stroke-miterlimit="10" stroke-linecap="round" stroke-linejoin="round"/>
<path d="M376.726 345.968H305.115C301.593 345.968 298.727 343.115 298.727 339.581V331.433C298.727 327.912 301.581 325.046 305.115 325.046H376.726C380.248 325.046 383.114 327.899 383.114 331.433V339.581C383.114 343.102 380.248 345.968 376.726 345.968Z" fill="#FFCB05"/>
<path opacity="0.2" d="M376.726 325.034H306.747L304.665 329.416C304.665 329.416 369.285 330.534 369.285 334.274C369.285 338.013 370.403 342.858 357.705 342.858C347.424 342.858 312.916 343.347 300.141 343.539C300.655 344.182 301.272 344.709 301.992 345.12L305.745 345.968H376.726C380.248 345.968 383.114 343.115 383.114 339.581V331.434C383.114 327.899 380.248 325.034 376.726 325.034Z" fill="black"/>
<path d="M376.726 345.968H305.115C301.593 345.968 298.727 343.115 298.727 339.581V331.433C298.727 327.912 301.581 325.046 305.115 325.046H376.726C380.248 325.046 383.114 327.899 383.114 331.433V339.581C383.114 343.102 380.248 345.968 376.726 345.968Z" stroke="#263238" stroke-miterlimit="10" stroke-linecap="round" stroke-linejoin="round"/>
<path d="M233.902 349.605C232.308 344.375 225.715 333.914 257.331 312.08C274.09 300.501 310.333 291.608 310.333 291.608L313.739 287.74C313.739 287.74 323.519 297.969 342.63 297.288C361.741 296.607 373.565 288.19 375.84 288.871C378.114 289.552 378.346 295.463 377.433 306.605C376.521 317.747 375.39 323.44 366.509 326.165C357.641 328.889 338.08 329.801 323.982 329.57C309.883 329.339 303.059 328.439 303.059 328.439C303.059 328.439 272.805 347.549 253.925 348.911" fill="#263238"/>
<path d="M233.902 349.605C232.308 344.374 225.715 333.914 257.331 312.08C274.09 300.501 310.333 291.608 310.333 291.608L313.739 287.74C313.739 287.74 323.519 297.969 342.63 297.288C361.741 296.607 373.565 288.19 375.84 288.871C378.114 289.552 378.346 295.463 377.433 306.605C376.521 317.747 375.39 323.44 366.509 326.165C357.641 328.889 338.08 329.801 323.982 329.57C309.883 329.339 303.059 328.439 303.059 328.439C303.059 328.439 272.805 347.549 253.925 348.911" stroke="#263238" stroke-miterlimit="10" stroke-linecap="round" stroke-linejoin="round"/>
<path d="M303.958 224.281C302.583 224.718 260.968 232.93 257.331 232.236C253.694 231.555 244.145 223.368 240.726 223.587C237.32 223.818 230.496 224.949 229.815 226.774C229.134 228.599 231.408 234.729 231.408 234.729C231.408 234.729 229.134 238.134 230.277 239.728C231.408 241.321 238.014 237.453 238.014 237.453C238.014 237.453 245.52 242.915 248.926 241.771C252.332 240.64 255.981 239.265 255.981 239.265C255.981 239.265 309.433 242.452 310.114 242.671C310.795 242.902 317.389 244.264 318.07 234.716C318.738 225.193 311.914 221.788 303.958 224.281Z" fill="white" stroke="#263238" stroke-miterlimit="10" stroke-linecap="round" stroke-linejoin="round"/>
<path d="M231.396 234.742L240.726 227.018" stroke="#263238" stroke-miterlimit="10" stroke-linecap="round" stroke-linejoin="round"/>
<path d="M234.814 231.336L239.814 215.645L241.857 216.095L239.364 227.468L234.814 231.336Z" fill="#263238"/>
<path d="M271.43 240.885C271.43 240.885 216.153 256.126 207.285 254.982C198.417 253.852 195.68 249.983 193.636 249.983C191.593 249.983 185.899 252.708 183.406 252.489C180.9 252.258 177.944 251.577 177.944 253.17C177.944 254.764 180.219 257.27 181.581 257.27C182.943 257.27 188.405 257.039 188.405 257.039C188.405 257.039 177.713 260.226 177.263 262.269C176.813 264.312 178.175 266.137 180.219 266.587C182.262 267.037 183.175 267.949 183.175 267.949C183.175 267.949 184.087 271.355 185.45 272.948C186.812 274.542 190.912 275.223 195.461 274.31C200.011 273.398 207.966 269.311 209.791 268.168C211.616 267.037 266.88 262.025 270.98 261.112C275.08 260.2 280.079 260.2 281.673 257.476C283.254 254.764 271.43 240.885 271.43 240.885Z" fill="white"/>
<path d="M204.586 265.996C195.089 265.996 197.196 256.499 194.035 258.08C191.272 259.455 180.489 260.843 177.43 264.325C177.88 265.443 178.908 266.292 180.219 266.587C182.262 267.037 183.175 267.949 183.175 267.949C183.175 267.949 184.087 271.355 185.45 272.948C186.812 274.542 190.912 275.223 195.461 274.311C200.011 273.398 207.966 269.312 209.791 268.168C211.616 267.037 266.88 262.025 270.98 261.113C274.283 260.38 278.19 260.239 280.4 258.774C281.184 257.977 281.66 257.476 281.66 257.476L275.799 251.744C275.799 251.757 214.084 265.996 204.586 265.996Z" fill="#FFCB05"/>
<path opacity="0.5" d="M204.586 265.996C195.089 265.996 197.196 256.499 194.035 258.08C191.272 259.455 180.489 260.843 177.43 264.325C177.88 265.443 178.908 266.292 180.219 266.587C182.262 267.037 183.175 267.949 183.175 267.949C183.175 267.949 184.087 271.355 185.45 272.948C186.812 274.542 190.912 275.223 195.461 274.311C200.011 273.398 207.966 269.312 209.791 268.168C211.616 267.037 266.88 262.025 270.98 261.113C274.283 260.38 278.19 260.239 280.4 258.774C281.184 257.977 281.66 257.476 281.66 257.476L275.799 251.744C275.799 251.757 214.084 265.996 204.586 265.996Z" fill="white"/>
<path d="M271.43 240.885C271.43 240.885 216.153 256.126 207.285 254.982C198.417 253.852 195.68 249.983 193.636 249.983C191.593 249.983 185.899 252.708 183.406 252.489C180.9 252.258 177.944 251.577 177.944 253.17C177.944 254.764 180.219 257.27 181.581 257.27C182.943 257.27 188.405 257.039 188.405 257.039C188.405 257.039 177.713 260.226 177.263 262.269C176.813 264.312 178.175 266.137 180.219 266.587C182.262 267.037 183.175 267.949 183.175 267.949C183.175 267.949 184.087 271.355 185.45 272.948C186.812 274.542 190.912 275.223 195.461 274.31C200.011 273.398 207.966 269.311 209.791 268.168C211.616 267.037 266.88 262.025 270.98 261.112C275.08 260.2 280.079 260.2 281.673 257.476C283.254 254.764 271.43 240.885 271.43 240.885Z" stroke="#263238" stroke-miterlimit="10" stroke-linecap="round" stroke-linejoin="round"/>
<path d="M318.057 185.162C318.057 185.162 313.057 198.81 306.683 207.909C300.308 217.007 297.584 226.556 301.683 236.798C305.783 247.027 314.651 249.302 314.651 249.302C314.651 249.302 311.464 279.322 312.376 287.29C313.289 295.245 325.562 304.575 343.992 305.256C362.422 305.937 378.333 299.344 378.333 292.97C378.333 286.596 365.365 252.708 365.365 245.665C365.365 238.623 366.496 216.558 360.366 196.767C354.222 176.976 332.618 170.615 318.057 185.162Z" fill="#FFCB05"/>
<path opacity="0.2" d="M360.366 196.767C357.063 186.1 349.262 179.354 340.496 177.657C336.268 178.595 324.727 181.307 321.835 181.975C320.537 182.9 319.278 183.954 318.057 185.162C318.057 185.162 313.057 198.81 306.683 207.909C302.416 214.013 299.794 220.31 299.756 226.89C316.54 230.861 342.167 237.312 339.623 238.032C335.934 239.085 320.1 230.642 324.856 235.924C329.598 241.193 354.916 265.456 347.539 263.348C340.149 261.241 323.802 243.828 328.017 252.271C332.233 260.714 343.838 274.426 340.149 274.426C336.461 274.426 316.939 254.905 323.802 266.51C330.665 278.114 361.779 296.568 351.755 299.216C345.971 300.732 333.698 300.334 326.565 301.542C331.397 303.598 337.271 304.999 343.979 305.256C362.409 305.937 378.32 299.344 378.32 292.97C378.32 286.596 365.352 252.708 365.352 245.665C365.352 238.623 366.509 216.545 360.366 196.767Z" fill="black"/>
<path d="M318.057 185.162C318.057 185.162 313.057 198.81 306.683 207.909C300.308 217.007 297.584 226.556 301.683 236.798C305.783 247.027 314.651 249.302 314.651 249.302C314.651 249.302 311.464 279.322 312.376 287.29C313.289 295.245 325.562 304.575 343.992 305.256C362.422 305.937 378.333 299.344 378.333 292.97C378.333 286.596 365.365 252.708 365.365 245.665C365.365 238.623 366.496 216.558 360.366 196.767C354.222 176.976 332.618 170.615 318.057 185.162Z" stroke="#263238" stroke-miterlimit="10" stroke-linecap="round" stroke-linejoin="round"/>
<path d="M320.859 240.358C320.859 240.358 337.566 267.345 361.985 275.056" stroke="#263238" stroke-miterlimit="10" stroke-linecap="round" stroke-linejoin="round"/>
<path d="M318.931 244.855C318.931 244.855 325.357 266.06 342.064 276.341" stroke="#263238" stroke-miterlimit="10" stroke-linecap="round" stroke-linejoin="round"/>
<path d="M322.375 227.867C322.375 227.867 337.476 221.287 343.658 217.033" stroke="#263238" stroke-miterlimit="10" stroke-linecap="round" stroke-linejoin="round"/>
<path d="M316.18 229.409C316.18 229.409 321.604 230.565 335.536 229.409" stroke="#263238" stroke-miterlimit="10" stroke-linecap="round" stroke-linejoin="round"/>
<path d="M316.694 188.581C316.694 188.581 312.376 191.087 307.145 196.536C301.915 201.998 276.66 240.204 276.66 240.204C276.66 240.204 284.166 255.895 286.441 256.358C288.716 256.807 328.287 222.919 331.937 218.832C335.574 214.733 337.849 207.228 336.718 204.054" fill="#FFCB05"/>
<path opacity="0.2" d="M331.937 218.819C335.574 214.72 337.849 207.215 336.718 204.041L327.734 197.101L324.868 200.07C324.868 200.07 324.663 211.713 314.317 217.997C303.971 224.281 299.55 224.333 297.969 232.236C296.388 240.152 301.658 242.26 295.334 243.314C289.011 244.367 284.783 244.894 284.783 249.109C284.783 250.356 284.924 252.733 285.258 255.368C285.734 255.921 286.145 256.28 286.454 256.345C288.716 256.807 328.3 222.919 331.937 218.819Z" fill="black"/>
<path d="M316.694 188.581C316.694 188.581 312.376 191.087 307.145 196.536C301.915 201.998 276.66 240.204 276.66 240.204C276.66 240.204 284.166 255.895 286.441 256.358C288.716 256.807 328.287 222.919 331.937 218.832C335.574 214.733 337.849 207.228 336.718 204.054" stroke="#263238" stroke-miterlimit="10" stroke-linecap="round" stroke-linejoin="round"/>
<path d="M268.024 242.478C268.024 242.478 275.08 259.313 276.673 261.125C278.267 262.95 286.685 261.806 289.41 259.763C292.134 257.72 291.684 253.62 291.684 253.62C291.684 253.62 281.223 235.192 280.079 234.292C278.948 233.38 278.485 235.423 273.704 237.017C268.936 238.61 267.111 239.291 268.024 242.478Z" fill="white" stroke="#263238" stroke-miterlimit="10" stroke-linecap="round" stroke-linejoin="round"/>
<path d="M279.398 142.175C279.398 142.175 278.948 148.768 280.079 150.824C281.21 152.868 284.397 154.924 284.397 157.648C284.397 160.373 282.123 164.022 282.804 166.066C283.485 168.109 287.122 168.34 287.122 168.34C287.122 168.34 293.946 176.758 295.99 179.714C298.033 182.669 298.946 181.538 302.133 180.626C305.321 179.714 312.145 173.802 316.013 169.253C319.882 164.703 313.507 150.824 305.102 141.507C296.684 132.177 284.179 132.409 281.441 135.133C278.717 137.858 279.398 142.175 279.398 142.175Z" fill="white"/>
<path d="M297.429 135.801C296.375 140.993 295.322 149.783 298.483 155.759C303.226 164.729 306.927 169.471 304.279 176.861C303.804 178.171 303.328 179.328 302.84 180.356C306.246 178.891 312.402 173.481 316 169.24C319.869 164.691 313.494 150.811 305.089 141.494C302.75 138.911 300.103 137.074 297.429 135.801Z" fill="#F7D364"/>
<path opacity="0.5" d="M297.429 135.801C296.375 140.993 295.322 149.783 298.483 155.759C303.226 164.729 306.927 169.471 304.279 176.861C303.804 178.171 303.328 179.328 302.84 180.356C306.246 178.891 312.402 173.481 316 169.24C319.869 164.691 313.494 150.811 305.089 141.494C302.75 138.911 300.103 137.074 297.429 135.801Z" fill="white"/>
<path d="M284.397 151.955C284.397 151.955 284.397 148.55 288.497 150.824" stroke="#263238" stroke-miterlimit="10" stroke-linecap="round" stroke-linejoin="round"/>
<path d="M287.315 155.129L287.855 158.265C287.855 158.265 290.348 159.126 292.186 155.888" stroke="#263238" stroke-miterlimit="10" stroke-linecap="round" stroke-linejoin="round"/>
<path d="M279.398 142.175C279.398 142.175 278.948 148.768 280.079 150.824C281.21 152.868 284.397 154.924 284.397 157.648C284.397 160.373 282.123 164.022 282.804 166.066C283.485 168.109 287.122 168.34 287.122 168.34C287.122 168.34 293.946 176.758 295.99 179.714C298.033 182.669 298.946 181.538 302.133 180.626C305.321 179.714 312.145 173.802 316.013 169.253C319.882 164.703 313.507 150.824 305.102 141.507C296.684 132.177 284.179 132.409 281.441 135.133C278.717 137.858 279.398 142.175 279.398 142.175Z" stroke="#263238" stroke-miterlimit="10" stroke-linecap="round" stroke-linejoin="round"/>
<path d="M272.342 132.177L272.304 133.09L271.879 144.231L284.166 145.825L286.891 141.044V146.275C286.891 146.275 292.121 145.594 298.033 147.868C303.945 150.143 311.451 166.297 311.001 172.889C310.551 179.482 304.858 180.844 305.539 190.855C306.22 200.866 321.463 210.864 333.055 204.503C344.661 198.129 346.473 189.943 351.254 191.536C356.035 193.13 363.309 202.91 367.858 189.03C372.408 175.151 370.365 166.284 359.672 154.911C348.979 143.538 340.561 144.45 339.198 135.351C337.836 126.253 334.88 113.967 325.1 107.143C315.319 100.319 301.221 99.8695 289.165 105.1C277.123 110.343 272.342 126.253 272.342 132.177Z" fill="#263238"/>
<path d="M279.179 137.395C279.102 137.395 279.012 137.382 278.935 137.369C277.624 137.073 277.432 134.799 277.316 129.26C277.277 127.833 277.252 126.343 277.162 125.173C277.149 125.058 277.136 124.955 277.123 124.878C276.044 126.188 273.717 131.624 271.969 136.482L270.761 136.045C275.414 123.091 276.93 123.284 277.419 123.348C278.305 123.464 278.395 124.633 278.434 125.07C278.524 126.291 278.563 127.782 278.588 129.234C278.64 131.522 278.717 135.261 279.205 136.058C279.398 135.917 279.848 135.428 280.645 133.835C281.981 131.162 283.164 129.928 284.397 129.992C285.927 130.057 286.711 132.074 287.289 133.552C287.456 133.989 287.636 134.452 287.765 134.632C288.33 134.786 290.335 132.73 291.415 131.637C291.736 131.316 292.044 130.982 292.353 130.686C292.841 130.198 293.471 129.671 294.178 129.774C294.885 129.877 295.244 130.545 295.617 131.252C295.964 131.907 296.35 132.64 297.057 133.205C297.468 133.526 297.674 133.475 297.763 133.462C298.689 133.244 299.807 130.751 301.105 127.859C301.413 127.191 301.722 126.471 302.069 125.726C302.493 124.801 303.071 123.734 304.022 123.824C305.231 123.914 305.77 125.79 306.593 128.63C307.261 130.943 308.032 133.578 309.15 135.017C309.433 135.377 309.844 135.801 310.204 135.75C311.207 135.595 312.312 132.627 312.98 130.841C313.392 129.748 313.739 128.81 314.086 128.232C314.445 127.628 314.908 127.512 315.178 127.525C316.129 127.551 316.772 128.823 317.671 130.558C318.34 131.869 319.252 133.655 320.01 133.951C320.165 134.015 320.216 133.976 320.255 133.963C320.756 133.706 321.18 132.061 321.54 130.725C321.938 129.183 322.362 127.589 323.108 126.471C323.557 125.79 324.149 125.392 324.856 125.276C326.539 125.006 328.403 126.458 329.662 127.435C329.598 126.78 329.457 125.88 329.341 125.096C328.698 120.83 328.506 118.748 329.585 118.169C330.086 117.9 330.677 118.054 331.346 118.645C332.233 119.429 333.402 120.727 334.636 122.102C336.988 124.736 340.561 128.733 342 128.347C342.399 128.245 342.617 127.628 342.72 127.127L343.979 127.396C343.709 128.63 343.157 129.363 342.334 129.581C340.265 130.121 337.451 127.178 333.685 122.95C332.477 121.601 331.346 120.328 330.51 119.596C330.369 119.48 330.266 119.403 330.202 119.365C329.919 120.174 330.395 123.336 330.626 124.891C331.089 127.911 331.179 128.72 330.588 129.093C330.33 129.26 330.009 129.247 329.726 129.054C329.508 128.913 329.225 128.694 328.917 128.45C327.901 127.666 326.218 126.356 325.087 126.535C324.727 126.587 324.444 126.792 324.2 127.178C323.57 128.116 323.185 129.607 322.812 131.046C322.311 132.948 321.887 134.593 320.871 135.107C320.602 135.248 320.139 135.364 319.573 135.133C318.365 134.644 317.453 132.858 316.566 131.123C316.168 130.339 315.576 129.196 315.229 128.862C315.229 128.862 315.229 128.861 315.229 128.874C314.934 129.363 314.587 130.288 314.227 131.278C313.276 133.835 312.196 136.739 310.436 137.009C309.652 137.125 308.88 136.726 308.174 135.801C306.888 134.156 306.092 131.406 305.385 128.977C304.948 127.461 304.344 125.392 303.92 125.096C303.92 125.148 303.663 125.366 303.264 126.253C302.917 126.998 302.609 127.705 302.3 128.373C300.694 131.959 299.627 134.323 298.085 134.696C297.481 134.837 296.877 134.67 296.273 134.195C295.347 133.462 294.859 132.524 294.499 131.83C294.332 131.522 294.101 131.085 293.985 131.02C293.985 131.033 293.792 131.072 293.278 131.586C292.97 131.882 292.661 132.203 292.353 132.524C290.219 134.709 288.857 136.02 287.687 135.93C287.289 135.891 286.955 135.685 286.724 135.338C286.531 135.043 286.351 134.593 286.132 134.015C285.76 133.064 285.079 131.303 284.385 131.278C284.179 131.239 283.318 131.47 281.84 134.413C280.76 136.495 279.976 137.395 279.179 137.395Z" fill="#474544"/>
<path d="M304.742 189.03C304.742 189.03 307.929 177.169 311.104 180.934C314.291 184.699 316.605 185.856 316.887 182.669C317.183 179.482 316.887 174.855 320.075 179.199C323.262 183.543 331.076 187.886 331.654 181.23C332.233 174.573 333.107 165.603 336.859 170.229C340.625 174.855 343.799 178.338 344.095 175.729C344.391 173.12 346.987 171.103 348.143 173.994C349.3 176.886 350.174 179.777 351.035 173.12C351.909 166.464 347.848 159.228 352.192 160.963C356.536 162.698 358.554 168.481 358.554 165.307C358.554 162.12 353.349 158.367 357.975 159.524C362.602 160.681 363.18 163.572 363.759 161.837C364.337 160.102 361.15 156.054 365.211 156.054" stroke="#474544" stroke-miterlimit="10"/>
<path d="M272.342 132.177L272.304 133.09L271.879 144.231L284.166 145.825L286.891 141.044V146.275C286.891 146.275 292.121 145.594 298.033 147.868C303.945 150.143 311.451 166.297 311.001 172.889C310.551 179.482 304.858 180.844 305.539 190.855C306.22 200.866 321.463 210.864 333.055 204.503C344.661 198.129 346.473 189.943 351.254 191.536C356.035 193.13 363.309 202.91 367.858 189.03C372.408 175.151 370.365 166.284 359.672 154.911C348.979 143.538 340.561 144.45 339.198 135.351C337.836 126.253 334.88 113.967 325.1 107.143C315.319 100.319 301.221 99.8695 289.165 105.1C277.123 110.343 272.342 126.253 272.342 132.177Z" stroke="#263238" stroke-miterlimit="10" stroke-linecap="round" stroke-linejoin="round"/>
<path d="M6.90906 475.996H477.229" stroke="#263238" stroke-miterlimit="10"/>
</svg>
