<svg width="103" height="104" viewBox="0 0 103 104" fill="none" xmlns="http://www.w3.org/2000/svg">
<path d="M71.9381 66.1093H93.4028L70.4693 26.9776L66.9189 20.7072C66.9189 20.7072 63.9362 13.8259 60.2055 19.2429L53.348 31.0291L52.4289 32.6282L54.9791 36.7515L62.2421 49.2924L71.9381 66.1093Z" fill="#DE9C26"/>
<path d="M28.6843 73.6552C29.6305 74.1852 29.9639 75.389 29.4323 76.3322L28.1977 78.5062C27.6661 79.4495 26.4586 79.7819 25.5124 79.2518C24.5662 78.7218 24.2328 77.518 24.7645 76.5748L25.999 74.4008C26.5397 73.4485 27.7382 73.1252 28.6843 73.6552Z" fill="#F7CA16"/>
<path d="M19.7092 69.2265C20.6554 69.7565 20.9888 70.9603 20.4571 71.9035L20.0426 72.6312C19.511 73.5745 18.3034 73.9069 17.3573 73.3768C16.4111 72.8468 16.0777 71.643 16.6093 70.6998L17.0239 69.9721C17.5645 69.0289 18.763 68.6965 19.7092 69.2265Z" fill="#F7CA16"/>
<path d="M21.6015 76.0178C22.5477 76.5478 22.8811 77.7516 22.3495 78.6948L21.9349 79.4225C21.4033 80.3657 20.1958 80.6981 19.2496 80.1681C18.3034 79.6381 17.97 78.4343 18.5017 77.491L18.9162 76.7634C19.4479 75.8201 20.6553 75.4878 21.6015 76.0178Z" fill="#F7CA16"/>
<path d="M12.284 73.3139C13.2301 73.844 13.5636 75.0478 13.0319 75.991L12.6174 76.7187C12.0857 77.6619 10.8782 77.9943 9.93203 77.4643C8.98584 76.9343 8.65241 75.7305 9.18408 74.7872L9.59861 74.0596C10.1303 73.1073 11.3378 72.7749 12.284 73.3139Z" fill="#F7CA16"/>
<path d="M22.8721 85.0193C23.8183 85.5493 24.1517 86.7531 23.62 87.6963L23.2055 88.424C22.6738 89.3673 21.4664 89.6996 20.5202 89.1696C19.574 88.6396 19.2406 87.4358 19.7723 86.4926L20.1868 85.7649C20.7275 84.8127 21.9259 84.4803 22.8721 85.0193Z" fill="#F7CA16"/>
<path d="M27.3417 65.8935C28.2879 66.4235 28.6213 67.6273 28.0896 68.5706L26.8551 70.7446C26.3234 71.6878 25.1159 72.0202 24.1697 71.4902C23.2236 70.9601 22.8902 69.7564 23.4218 68.8131L24.6563 66.6391C25.197 65.6959 26.3955 65.3635 27.3417 65.8935Z" fill="#F7CA16"/>
<path d="M24.3589 61.0337C25.3051 61.5637 25.6386 62.7675 25.1069 63.7107L23.8724 65.8847C23.3407 66.828 22.1332 67.1604 21.187 66.6303C20.2408 66.1003 19.9074 64.8966 20.4391 63.9533L21.6736 61.7793C22.2143 60.8271 23.4128 60.4947 24.3589 61.0337Z" fill="#F7CA16"/>
<path d="M18.0871 61.9499C19.0333 62.4799 19.3667 63.6837 18.8351 64.627L17.6005 66.8009C17.0689 67.7442 15.8614 68.0766 14.9152 67.5466C13.969 67.0166 13.6356 65.8128 14.1673 64.8695L15.4018 62.6955C15.9425 61.7523 17.141 61.4199 18.0871 61.9499Z" fill="#F7CA16"/>
<path d="M19.2586 60.1981C20.2048 60.7281 21.4033 60.3957 21.9439 59.4524L28.7384 47.4686L28.9006 47.1811C29.0358 46.9476 29.3331 46.8667 29.5674 47.0014L29.6035 47.0194C29.8378 47.1542 29.9189 47.4506 29.7837 47.6842L29.6666 47.8998L24.1877 57.548C23.6561 58.4912 23.9895 59.686 24.9357 60.225C25.8818 60.764 27.0803 60.4226 27.621 59.4794L33.262 49.5348L33.4152 49.2653C33.5504 49.0317 33.8478 48.9509 34.082 49.0856L34.1271 49.1126C34.3614 49.2473 34.4425 49.5437 34.3073 49.7773L32.7754 52.4723L27.6931 61.4288C27.1614 62.372 27.4948 63.5668 28.441 64.1058C29.3872 64.6359 30.5857 64.3035 31.1264 63.3602L36.5151 53.8648L37.7947 51.6099L37.9839 51.2776C38.1191 51.044 38.4164 50.9631 38.6507 51.0979L38.6598 51.1069C38.8941 51.2416 38.9751 51.5381 38.84 51.7716L38.6958 52.0232L29.8017 67.6992C29.2701 68.6424 29.6035 69.8372 30.5497 70.3762C31.4958 70.9063 32.6943 70.5739 33.235 69.6306L42.3453 53.5773L53.4381 34.2451L58.0519 25.8815L60.539 21.5875C64.4408 16.6915 67.8471 22.2792 67.8471 22.2792L65.8376 18.56C64.2966 15.5237 60.566 15.6494 60.566 15.6494C60.566 15.6494 47.7971 15.5596 45.1208 15.5776C42.4445 15.5955 40.8495 18.6858 40.8495 18.6858L39.5158 20.9496L26.9181 42.7882C26.8731 42.8511 26.819 42.914 26.783 42.9859L18.5467 57.503C17.979 58.4643 18.3124 59.659 19.2586 60.1981Z" fill="#F7CA16"/>
<path d="M65.8105 18.5691L66.8468 20.4916C66.8468 20.4916 63.4406 14.9039 59.5387 19.7999L57.0516 24.0939L52.4379 32.4575L31.1083 70.592C31.9193 70.7537 32.7844 70.4033 33.2079 69.6397L42.3183 53.5864L53.4111 34.2541L58.0248 25.8906L60.5119 21.5965C64.4138 16.7006 67.82 22.2883 67.82 22.2883L65.8105 18.5691Z" fill="#FFC759"/>
<path d="M35.4157 95.3951C59.1783 104.073 85.5 91.9005 94.2049 68.2023C102.91 44.5042 90.6995 18.2727 66.9279 9.59475C43.1654 0.916795 16.8436 13.0893 8.13876 36.7874C5.05693 45.1689 4.59736 53.8649 6.33652 61.9948" stroke="#F7CA16" stroke-miterlimit="10"/>
<path d="M29.5404 95.952C53.6093 107.837 82.7876 98.0182 94.7094 74.0236C106.631 50.0289 96.782 20.9407 72.7131 9.05569C48.6441 -2.82934 19.4659 6.98951 7.54407 30.9841C4.59741 36.9132 2.98439 43.1477 2.57889 49.3642" stroke="#F7CA16" stroke-miterlimit="10"/>
</svg>
